<?xml version="1.0"?>
<svg xmlns="http://www.w3.org/2000/svg"
width="1115" height="120"
viewBox="0 0 1115 120">
<rect x="10" y="65" width="20" height="45"
fill="blue" stroke="black" stroke-width="2"/>
<rect x="35" y="32" width="20" height="78"
fill="blue" stroke="black" stroke-width="2"/>
<rect x="60" y="12" width="20" height="98"
fill="blue" stroke="black" stroke-width="2"/>
<rect x="85" y="56" width="20" height="54"
fill="blue" stroke="black" stroke-width="2"/>
<rect x="110" y="98" width="20" height="12"
fill="blue" stroke="black" stroke-width="2"/>
<rect x="135" y="59" width="20" height="51"
fill="blue" stroke="black" stroke-width="2"/>
<rect x="160" y="65" width="20" height="45"
fill="blue" stroke="black" stroke-width="2"/>
<rect x="185" y="89" width="20" height="21"
fill="blue" stroke="black" stroke-width="2"/>
<rect x="210" y="78" width="20" height="32"
fill="blue" stroke="black" stroke-width="2"/>
<rect x="235" y="45" width="20" height="65"
fill="blue" stroke="black" stroke-width="2"/>
<rect x="260" y="90" width="20" height="20"
fill="blue" stroke="black" stroke-width="2"/>
<rect x="285" y="100" width="20" height="10"
fill="blue" stroke="black" stroke-width="2"/>
<rect x="310" y="80" width="20" height="30"
fill="blue" stroke="black" stroke-width="2"/>
<rect x="335" y="85" width="20" height="25"
fill="blue" stroke="black" stroke-width="2"/>
<rect x="360" y="98" width="20" height="12"
fill="blue" stroke="black" stroke-width="2"/>
<rect x="385" y="88" width="20" height="22"
fill="blue" stroke="black" stroke-width="2"/>
<rect x="410" y="66" width="20" height="44"
fill="blue" stroke="black" stroke-width="2"/>
<rect x="435" y="99" width="20" height="11"
fill="blue" stroke="black" stroke-width="2"/>
<rect x="460" y="55" width="20" height="55"
fill="blue" stroke="black" stroke-width="2"/>
<rect x="485" y="22" width="20" height="88"
fill="blue" stroke="black" stroke-width="2"/>
<rect x="510" y="33" width="20" height="77"
fill="blue" stroke="black" stroke-width="2"/>
<rect x="535" y="11" width="20" height="99"
fill="blue" stroke="black" stroke-width="2"/>
<rect x="560" y="105" width="20" height="5"
fill="blue" stroke="black" stroke-width="2"/>
<rect x="585" y="108" width="20" height="2"
fill="blue" stroke="black" stroke-width="2"/>
<rect x="610" y="106" width="20" height="4"
fill="blue" stroke="black" stroke-width="2"/>
<rect x="635" y="105" width="20" height="5"
fill="blue" stroke="black" stroke-width="2"/>
<rect x="660" y="108" width="20" height="2"
fill="blue" stroke="black" stroke-width="2"/>
<rect x="685" y="105" width="20" height="5"
fill="blue" stroke="black" stroke-width="2"/>
<rect x="710" y="109" width="20" height="1"
fill="blue" stroke="black" stroke-width="2"/>
<rect x="735" y="14" width="20" height="96"
fill="blue" stroke="black" stroke-width="2"/>
<rect x="760" y="102" width="20" height="8"
fill="blue" stroke="black" stroke-width="2"/>
<rect x="785" y="105" width="20" height="5"
fill="blue" stroke="black" stroke-width="2"/>
<rect x="810" y="106" width="20" height="4"
fill="blue" stroke="black" stroke-width="2"/>
<rect x="835" y="109" width="20" height="1"
fill="blue" stroke="black" stroke-width="2"/>
<rect x="860" y="108" width="20" height="2"
fill="blue" stroke="black" stroke-width="2"/>
<rect x="885" y="107" width="20" height="3"
fill="blue" stroke="black" stroke-width="2"/>
<rect x="910" y="106" width="20" height="4"
fill="blue" stroke="black" stroke-width="2"/>
<rect x="935" y="103" width="20" height="7"
fill="blue" stroke="black" stroke-width="2"/>
<rect x="960" y="102" width="20" height="8"
fill="blue" stroke="black" stroke-width="2"/>
<rect x="985" y="105" width="20" height="5"
fill="blue" stroke="black" stroke-width="2"/>
<rect x="1010" y="105" width="20" height="5"
fill="blue" stroke="black" stroke-width="2"/>
<rect x="1035" y="105" width="20" height="5"
fill="blue" stroke="black" stroke-width="2"/>
<rect x="1060" y="58" width="20" height="52"
fill="blue" stroke="black" stroke-width="2"/>
<rect x="1085" y="89" width="20" height="21"
fill="blue" stroke="black" stroke-width="2"/>
</svg>
